<svg width="249" height="120" viewBox="0 0 249 120" fill="none" xmlns="http://www.w3.org/2000/svg">
<g opacity="0.5">
<path d="M176.477 29.8912C183.917 25.3238 192.301 22.4742 200.706 21.6689C207.871 20.9673 215.314 21.7447 222.403 23.8907L222.647 21.0435C215.277 18.9154 207.774 18.175 200.441 18.8761C191.613 19.7291 182.826 22.7121 175.018 27.4997C167.209 32.2873 160.583 38.7851 155.829 46.2826C154.488 48.3923 153.308 50.5717 152.277 52.8059C140.094 56.4214 129.254 63.1319 119.313 69.9475C116.892 71.6009 114.451 73.3225 112.099 74.9819C103.483 81.0295 94.5848 87.2767 85.0269 91.9145C74.2433 97.1469 62.1623 100.379 50.0869 101.262C37.6734 102.172 25.6311 100.707 14.2933 96.8959C9.64481 95.3226 5.12804 93.3549 0.850449 91.0439L0.592363 94.0577C4.74419 96.2041 8.9928 98.0369 13.4112 99.5205C20.3168 101.847 27.4905 103.328 34.8213 103.956C39.9029 104.391 45.0757 104.415 50.2969 104.036C62.7103 103.127 75.149 99.7987 86.2536 94.412C96.0015 89.6785 105.003 83.3701 113.694 77.259C116.046 75.5997 118.486 73.8919 120.892 72.2512C130.044 65.9837 139.929 59.8209 150.869 56.1829C147.565 64.8819 146.683 74.0401 148.482 82.4345C149.808 88.662 152.719 94.5214 156.89 99.3836C161.213 104.427 166.611 108.037 172.514 109.815C178.553 111.648 185.274 111.398 191.452 109.157C197.789 106.845 202.922 102.598 205.93 97.2033C209.251 91.2479 210.004 83.9254 208.044 76.5945C206.19 69.6643 201.987 63.2185 196.496 58.9009C191.176 54.7238 184.708 52.0155 177.311 50.8643C170.617 49.8155 163.36 50.1313 156.324 51.7674C156.167 51.8098 156.011 51.8384 155.853 51.8809C156.559 50.5003 157.346 49.1407 158.187 47.8137C162.717 40.6467 169.037 34.4585 176.477 29.8912ZM156.947 54.4649C163.639 52.9114 170.531 52.6202 176.88 53.6115C183.808 54.6945 189.83 57.2108 194.77 61.0896C199.79 65.031 203.647 70.9435 205.34 77.3003C207.108 83.9293 206.446 90.5181 203.487 95.833C198.033 105.635 184.769 110.599 173.303 107.141C167.917 105.518 162.971 102.199 158.99 97.5627C155.125 93.0486 152.428 87.6272 151.188 81.8548C149.358 73.3457 150.498 63.9439 154.287 55.1465C155.176 54.8869 156.062 54.6689 156.947 54.4649Z" fill="white"/>
<path d="M248.414 30.306L221.854 6.06052L221.467 16.7353L240.062 26.872L221.325 20.6765L221.324 20.6866L221.324 20.6744L213.125 23.3781L221.108 26.6605L220.834 34.2439L248.414 30.306Z" fill="white"/>
</g>
</svg>
