<svg width="30" height="30" viewBox="0 0 30 30" fill="none" xmlns="http://www.w3.org/2000/svg">
<g id="play">
<path id="Vector" d="M27.4506 8.59216C26.4702 6.69065 25.0404 5.01156 23.316 3.73635C23.0629 3.54927 22.7062 3.60274 22.519 3.85573C22.3319 4.10872 22.3854 4.4655 22.6384 4.65268C24.2231 5.82456 25.5369 7.36738 26.4378 9.11447C27.3818 10.9451 27.8604 12.9253 27.8604 15.0001C27.8604 22.0913 22.0912 27.8605 15 27.8605C7.90879 27.8605 2.13959 22.0913 2.13959 15C2.13959 7.90869 7.90879 2.13959 15 2.13959C15.3146 2.13959 15.5698 1.88442 15.5698 1.5698C15.5698 1.25517 15.3146 1 15 1C7.28039 1 1 7.28039 1 15C1 22.7196 7.28039 29 15 29C22.7196 29 29 22.7196 29 15C29 12.7736 28.4643 10.5579 27.4506 8.59216Z" fill="white" stroke="white"/>
<g id="pause">
<path id="Vector_2" d="M13.1324 18.6782C13.1324 19.5432 12.4311 20.2444 11.5662 20.2444C10.7013 20.2444 10 19.5432 10 18.6782V10.5662C10 9.70126 10.7013 9 11.5662 9C12.4311 9 13.1324 9.70126 13.1324 10.5662V18.6782Z" fill="white"/>
<path id="Vector_3" d="M19.0113 18.6782C19.0113 19.5432 18.31 20.2444 17.4451 20.2444C16.5802 20.2444 15.8789 19.5432 15.8789 18.6782V10.5662C15.8791 9.70126 16.5804 9 17.4451 9C18.31 9 19.0113 9.70126 19.0113 10.5662V18.6782Z" fill="white"/>
</g>
</g>
</svg>
